#format: frame checksums
#version: 2
#hash: MD5
#extradata 0,                              16, c9a1741fb293b9ad21876492b5425a3b
#tb 0: 1/25
#media_type 0: video
#codec_id 0: utvideo
#dimensions 0: 352x288
#sar 0: 0/1
#stream#, dts,        pts, duration,     size, hash
0,          0,          0,        1,   194232, 96431f57c15dfce7894563df186457c7
0,          1,          1,        1,   194256, f7617d88a5bb862047dd62a3618eca2c
0,          2,          2,        1,   195048, 77aa5446e64733aa29bf5ba4ad92073d
0,          3,          3,        1,   194012, 4a73e8b156eebc15de299c57087639a5
0,          4,          4,        1,   193268, a0afb35be4f9f91366d848b0600c949d
0,          5,          5,        1,   194168, b0580fbf05dc9a2abc053f2deb48b8c9
0,          6,          6,        1,   194240, 5f5adb862a13843123e27f01d1870799
0,          7,          7,        1,   193512, 71dca88d3fdf753858887006ac3cc13b
0,          8,          8,        1,   193952, 7efa7d138fa412343741ccbeb18acd18
0,          9,          9,        1,   194700, ffddf410e5b8e49cf0462baf7bc9e179
0,         10,         10,        1,   193984, c71b59a9699f2832e8c3d76e5d5e4f0c
0,         11,         11,        1,   193640, 598bdf3a814db44775ad703d674e9ab9
0,         12,         12,        1,   192900, de83dd60e69a305ab0a79c4a859d444d
0,         13,         13,        1,   193780, 7858349baa970794b0353e011f751259
0,         14,         14,        1,   194564, 9470359eb6f09d5a1db5dc199e910bcf
0,         15,         15,        1,   194856, c15823765a9d4d1583f2dd7b63534c95
0,         16,         16,        1,   194056, 5f60ee32c9e06f080dcd0b4025576d5b
0,         17,         17,        1,   194124, a10815c6603e375ab0b21331e03651de
0,         18,         18,        1,   193508, 54a5762f2717ce1be3b9193b930d1b1f
0,         19,         19,        1,   193412, 782b07b8ac3bd1a86ad562ef7d7ebca5
0,         20,         20,        1,   192472, 96f7f1983d6ac34c591e33045c5ba3dc
0,         21,         21,        1,   192844, b56bec01d69b3e073ac9823b2bf4c2f5
0,         22,         22,        1,   192668, 3071c2d282672a597bee4682cef304ff
0,         23,         23,        1,   194108, 3484d2ca748c20d87280f5333054552d
0,         24,         24,        1,   194552, b05a90da02c18ee880234d620259361d
0,         25,         25,        1,   193860, 08617a493d2abe75b438a35315aef7a0
0,         26,         26,        1,   193452, 958eaccd55d6a55832ec9cb6ce201fc4
0,         27,         27,        1,   193364, 8cab6850866ce9c0ecf818cc4630bdb3
0,         28,         28,        1,   192064, 03ce30fadf6b80d0b901c0f53f09e23b
0,         29,         29,        1,   192464, 7bf3364a095cbea2a032f6762d3433bf
0,         30,         30,        1,   192880, 6176bcbdf42f787aa4c21791fd3d73e2
0,         31,         31,        1,   193672, 0760b04edf969c5b0914fcae82ee7ee3
0,         32,         32,        1,   193636, a08c905e46e35d575001e570389a9b70
0,         33,         33,        1,   193976, dff151dc2dfa5a86103bddc11484a38f
0,         34,         34,        1,   193456, 86f44e4a438ad150baee14facdebb701
0,         35,         35,        1,   193768, 5645f55ed8154a0c913890a11b6f1261
0,         36,         36,        1,   193584, 023ca364d9a88ccb2bae08008c6c3098
0,         37,         37,        1,   193844, be83062bffff72ba0c442f502c41a187
0,         38,         38,        1,   193008, 6e1dd8f2d18145ee199395d34c0e55ff
0,         39,         39,        1,   192680, 27256f3f1111554a75d7b7366b77457f
0,         40,         40,        1,   192188, d86ea5fafc41d57e320479f54fd1286a
0,         41,         41,        1,   193200, a37553416c0187b364ce2b64ece22975
0,         42,         42,        1,   193052, 8e3c81d246b744c2aed9b735015ee93f
0,         43,         43,        1,   193032, dd8e2b350d8181c6a73832c868ea99f4
0,         44,         44,        1,   192444, 6844e2dc435f417028644d3314b94c4f
0,         45,         45,        1,   191824, fc01e22ba45bca6eac69ba76043e1484
0,         46,         46,        1,   191772, 5e2bedda3828d590d25caa14f96ba7b0
0,         47,         47,        1,   191720, edaae522f8a975bbef0e909ef09e7fc7
0,         48,         48,        1,   191528, f2d98179f5cf0752ecbd6d39c4457283
0,         49,         49,        1,   190692, 74cd0f762371781712e2ff2e3f60ac57
